TITLE ""
FILE "DISC2Track06.mp3" MP3
  TRACK 01 AUDIO
    TITLE "DISC2Track06_01"
    INDEX 01 00:00:00
  TRACK 02 AUDIO
    TITLE "DISC2Track06_02"
    INDEX 01 00:04:22
  TRACK 03 AUDIO
    TITLE "DISC2Track06_03"
    INDEX 01 00:04:43
  TRACK 04 AUDIO
    TITLE "DISC2Track06_04"
    INDEX 01 00:08:08
  TRACK 05 AUDIO
    TITLE "DISC2Track06_05"
    INDEX 01 00:10:48
  TRACK 06 AUDIO
    TITLE "DISC2Track06_06"
    INDEX 01 00:13:05
  TRACK 07 AUDIO
    TITLE "DISC2Track06_07"
    INDEX 01 00:13:29
  TRACK 08 AUDIO
    TITLE "DISC2Track06_08"
    INDEX 01 00:16:49
  TRACK 09 AUDIO
    TITLE "DISC2Track06_09"
    INDEX 01 00:19:59
  TRACK 10 AUDIO
    TITLE "DISC2Track06_10"
    INDEX 01 00:22:57
  TRACK 11 AUDIO
    TITLE "DISC2Track06_11"
    INDEX 01 00:23:13
  TRACK 12 AUDIO
    TITLE "DISC2Track06_12"
    INDEX 01 00:24:66
  TRACK 13 AUDIO
    TITLE "DISC2Track06_13"
    INDEX 01 00:26:57
  TRACK 14 AUDIO
    TITLE "DISC2Track06_14"
    INDEX 01 00:28:42
  TRACK 15 AUDIO
    TITLE "DISC2Track06_15"
    INDEX 01 00:28:65
  TRACK 16 AUDIO
    TITLE "DISC2Track06_16"
    INDEX 01 00:32:44
  TRACK 17 AUDIO
    TITLE "DISC2Track06_17"
    INDEX 01 00:35:32
  TRACK 18 AUDIO
    TITLE "DISC2Track06_18"
    INDEX 01 00:38:17
  TRACK 19 AUDIO
    TITLE "DISC2Track06_19"
    INDEX 01 00:38:40
  TRACK 20 AUDIO
    TITLE "DISC2Track06_20"
    INDEX 01 00:41:31
  TRACK 21 AUDIO
    TITLE "DISC2Track06_21"
    INDEX 01 00:44:29
  TRACK 22 AUDIO
    TITLE "DISC2Track06_22"
    INDEX 01 00:47:59
  TRACK 23 AUDIO
    TITLE "DISC2Track06_23"
    INDEX 01 00:48:49
  TRACK 24 AUDIO
    TITLE "DISC2Track06_24"
    INDEX 01 00:51:37
  TRACK 25 AUDIO
    TITLE "DISC2Track06_25"
    INDEX 01 00:54:04
  TRACK 26 AUDIO
    TITLE "DISC2Track06_26"
    INDEX 01 00:56:42
  TRACK 27 AUDIO
    TITLE "DISC2Track06_27"
    INDEX 01 00:56:66
  TRACK 28 AUDIO
    TITLE "DISC2Track06_28"
    INDEX 01 01:00:22
  TRACK 29 AUDIO
    TITLE "DISC2Track06_29"
    INDEX 01 01:02:68
  TRACK 30 AUDIO
    TITLE "DISC2Track06_30"
    INDEX 01 01:05:35
  TRACK 31 AUDIO
    TITLE "DISC2Track06_31"
    INDEX 01 01:05:59
  TRACK 32 AUDIO
    TITLE "DISC2Track06_32"
    INDEX 01 01:08:36
  TRACK 33 AUDIO
    TITLE "DISC2Track06_33"
    INDEX 01 01:11:34
  TRACK 34 AUDIO
    TITLE "DISC2Track06_34"
    INDEX 01 01:14:26
  TRACK 35 AUDIO
    TITLE "DISC2Track06_35"
    INDEX 01 01:14:50
  TRACK 36 AUDIO
    TITLE "DISC2Track06_36"
    INDEX 01 01:18:42
  TRACK 37 AUDIO
    TITLE "DISC2Track06_37"
    INDEX 01 01:23:59
  TRACK 38 AUDIO
    TITLE "DISC2Track06_38"
    INDEX 01 01:27:54
  TRACK 39 AUDIO
    TITLE "DISC2Track06_39"
    INDEX 01 01:28:05
  TRACK 40 AUDIO
    TITLE "DISC2Track06_40"
    INDEX 01 01:31:42
  TRACK 41 AUDIO
    TITLE "DISC2Track06_41"
    INDEX 01 01:34:45
  TRACK 42 AUDIO
    TITLE "DISC2Track06_42"
    INDEX 01 01:37:39
  TRACK 43 AUDIO
    TITLE "DISC2Track06_43"
    INDEX 01 01:37:65
  TRACK 44 AUDIO
    TITLE "DISC2Track06_44"
    INDEX 01 01:39:64
  TRACK 45 AUDIO
    TITLE "DISC2Track06_45"
    INDEX 01 01:41:58
  TRACK 46 AUDIO
    TITLE "DISC2Track06_46"
    INDEX 01 01:43:50
  TRACK 47 AUDIO
    TITLE "DISC2Track06_47"
    INDEX 01 01:43:71
  TRACK 48 AUDIO
    TITLE "DISC2Track06_48"
    INDEX 01 01:46:60
  TRACK 49 AUDIO
    TITLE "DISC2Track06_49"
    INDEX 01 01:49:27
  TRACK 50 AUDIO
    TITLE "DISC2Track06_50"
    INDEX 01 01:51:63
